<svg xmlns="http://www.w3.org/2000/svg" xmlns:xlink="http://www.w3.org/1999/xlink" version="1.1" id="Layer_1" x="0px" y="0px" width="100%" viewBox="0 0 286 299" enable-background="new 0 0 286 299" xml:space="preserve">
<path fill="#010101" opacity="1.000000" stroke="none" d=" M287.000000,108.000000   C287.000000,172.333328 287.000000,236.166641 287.000000,300.000000   C191.666702,300.000000 96.333412,300.000000 1.000085,300.000000   C1.000057,200.333389 1.000057,100.666794 1.000028,1.000139   C96.333252,1.000093 191.666504,1.000093 286.999878,1.000046   C287.000000,36.500000 287.000000,72.000000 287.000000,108.000000  M37.500034,9.123491   C27.291349,9.123491 17.082664,9.123491 5.824900,9.123491   C42.486660,62.453194 78.440971,114.753807 114.339485,166.973267   C78.162445,208.997894 42.397755,250.543533 5.877466,292.966888   C13.815248,292.966888 20.441769,293.198730 27.035250,292.833832   C29.175150,292.715393 31.837496,291.569855 33.227718,289.986816   C47.618633,273.599884 61.803215,257.031677 76.034805,240.504944   C92.440048,221.454025 108.834831,202.394104 125.371071,183.178970   C126.376595,184.594711 127.233665,185.769363 128.057938,186.966614   C151.561401,221.105179 175.096100,255.222412 198.494888,289.432617   C200.313583,292.091675 202.139526,293.061798 205.353745,293.043152   C229.847778,292.900879 254.343033,292.972595 278.837921,292.977570   C280.245544,292.977844 281.653168,292.977570 284.062836,292.977570   C246.188370,237.876541 208.922653,183.661133 171.653366,129.440521   C206.079803,89.432335 240.213547,49.764317 275.158325,9.153765   C267.374146,9.153765 260.934601,9.344803 254.514694,9.072771   C251.328384,8.937757 249.345688,10.058500 247.332764,12.418753   C231.554825,30.919264 215.647751,49.309658 199.778412,67.732216   C186.752808,82.853546 173.724411,97.972473 160.608276,113.195702   C159.921021,112.275536 159.401596,111.626823 158.931595,110.944092   C136.283798,78.045525 113.612000,45.163357 91.055832,12.202068   C89.444000,9.846706 87.781433,9.033834 84.989784,9.057886   C69.494164,9.191391 53.996803,9.122860 37.500034,9.123491  z"/>
<path fill="#F9F9F9" opacity="1.000000" stroke="none" d=" M38.000038,9.123491   C53.996803,9.122860 69.494164,9.191391 84.989784,9.057886   C87.781433,9.033834 89.444000,9.846706 91.055832,12.202068   C113.612000,45.163357 136.283798,78.045525 158.931595,110.944092   C159.401596,111.626823 159.921021,112.275536 160.608276,113.195702   C173.724411,97.972473 186.752808,82.853546 199.778412,67.732216   C215.647751,49.309658 231.554825,30.919264 247.332764,12.418753   C249.345688,10.058500 251.328384,8.937757 254.514694,9.072771   C260.934601,9.344803 267.374146,9.153765 275.158325,9.153765   C240.213547,49.764317 206.079803,89.432335 171.653366,129.440521   C208.922653,183.661133 246.188370,237.876541 284.062836,292.977570   C281.653168,292.977570 280.245544,292.977844 278.837921,292.977570   C254.343033,292.972595 229.847778,292.900879 205.353745,293.043152   C202.139526,293.061798 200.313583,292.091675 198.494888,289.432617   C175.096100,255.222412 151.561401,221.105179 128.057938,186.966614   C127.233665,185.769363 126.376595,184.594711 125.371071,183.178970   C108.834831,202.394104 92.440048,221.454025 76.034805,240.504944   C61.803215,257.031677 47.618633,273.599884 33.227718,289.986816   C31.837496,291.569855 29.175150,292.715393 27.035250,292.833832   C20.441769,293.198730 13.815248,292.966888 5.877466,292.966888   C42.397755,250.543533 78.162445,208.997894 114.339485,166.973267   C78.440971,114.753807 42.486660,62.453194 5.824900,9.123491   C17.082664,9.123491 27.291349,9.123491 38.000038,9.123491  M43.279232,27.966707   C42.398098,28.065081 41.516964,28.163452 40.232376,28.306868   C41.572281,30.303915 42.555367,31.823971 43.592133,33.306484   C96.441437,108.877602 149.289871,184.449326 202.160919,260.005219   C205.676315,265.028931 208.381714,271.853607 213.252563,274.348694   C218.153778,276.859344 225.289780,275.011200 231.446594,275.064392   C233.279510,275.080231 235.112671,275.066895 236.945724,275.066895   C240.970459,275.066895 244.995193,275.066895 249.783737,275.066895   C248.123932,272.631287 247.119690,271.123962 246.082016,269.640045   C231.487350,248.769302 216.886414,227.902969 202.290314,207.033234   C161.169418,148.237900 120.066330,89.430038 78.833679,30.713173   C77.830902,29.285173 75.411934,28.140938 73.621750,28.094765   C63.796474,27.841345 53.961288,27.972033 43.279232,27.966707  z"/>
<path fill="#030303" opacity="1.000000" stroke="none" d=" M43.704369,27.968771   C53.961288,27.972033 63.796474,27.841345 73.621750,28.094765   C75.411934,28.140938 77.830902,29.285173 78.833679,30.713173   C120.066330,89.430038 161.169418,148.237900 202.290314,207.033234   C216.886414,227.902969 231.487350,248.769302 246.082016,269.640045   C247.119690,271.123962 248.123932,272.631287 249.783737,275.066895   C244.995193,275.066895 240.970459,275.066895 236.945724,275.066895   C235.112671,275.066895 233.279510,275.080231 231.446594,275.064392   C225.289780,275.011200 218.153778,276.859344 213.252563,274.348694   C208.381714,271.853607 205.676315,265.028931 202.160919,260.005219   C149.289871,184.449326 96.441437,108.877602 43.592133,33.306484   C42.555367,31.823971 41.572281,30.303915 40.232376,28.306868   C41.516964,28.163452 42.398098,28.065081 43.704369,27.968771  z"/>
</svg>